<?xml version="1.0" encoding="utf-8"?>
<!-- Generator: Adobe Illustrator 26.0.1, SVG Export Plug-In . SVG Version: 6.00 Build 0)  -->
<svg version="1.1" id="Layer_2" xmlns="http://www.w3.org/2000/svg" xmlns:xlink="http://www.w3.org/1999/xlink" x="0px" y="0px"
	 viewBox="0 0 551.8 361" style="enable-background:new 0 0 551.8 361;" xml:space="preserve">
<style type="text/css">
	.st0{fill:none;}
	.st1{fill:#0B075E;}
	.st2{fill:#080332;}
	.st3{fill:#FFFFFF;}
</style>
<g>
	<rect x="216.1" y="290.8" class="st0" width="132.9" height="41.5"/>
	<rect x="216.1" y="221.9" class="st0" width="132.9" height="41.5"/>
	<path class="st0" d="M364,332.3c39.3,0,78.6,0,117.9,0c2.8-11.5,5.6-27.9,6.8-40.9c-41.6-0.4-83.2-0.8-124.8-1.1V332.3z"/>
	<path class="st0" d="M362,263.4c44.9,0,89.8,0,134.7,0c3.2-11.5,6.4-27.9,7.8-40.9c-47.5-0.4-95-0.8-142.5-1.1V263.4z"/>
	<path class="st0" d="M80.2,305.7c1.5,9.9,3.2,18.8,5.1,26.6c39.3,0,78.6,0,117.9,0v-42c-41.6,0.4-83.2,0.8-124.8,1.1
		C78.8,296,79.4,300.8,80.2,305.7z"/>
	<path class="st0" d="M143.2,153.5c-32.5,0.4-64.9,0.8-97.4,1.1c1,12.9,3.2,29.3,5.3,40.9c30.7,0,61.4,0,92.1,0V153.5z"/>
	<path class="st0" d="M62.7,236.8c1.7,9.9,3.7,18.8,5.8,26.6c44.9,0,89.8,0,134.7,0v-42c-47.5,0.4-95,0.8-142.5,1.1
		C61.2,227.1,61.9,231.9,62.7,236.8z"/>
	<path class="st0" d="M527.6,110c1-5,1.8-9.8,2.4-14.3C473,95.3,416,95,359,94.6v42.2c53.9,0,107.8,0,161.7,0
		C523.2,128.9,525.6,120,527.6,110z"/>
	<path class="st0" d="M414.9,195.5c30.7,0,61.4,0,92.1,0c2.2-11.6,4.4-28,5.3-40.9c-32.5-0.4-64.9-0.8-97.4-1.1V195.5z"/>
	<path class="st0" d="M35.5,110.2c2,9.9,4.4,18.8,6.9,26.6c53.9,0,107.8,0,161.7,0v-42c-57,0.4-114,0.8-171.1,1.1
		C33.7,100.4,34.5,105.2,35.5,110.2z"/>
	<rect x="216.1" y="95.2" class="st0" width="132.9" height="41.5"/>
	<path class="st1" d="M551.8,78H384.5c3.3-6.2,0.1-16-7.6-18.5V76h-11V59.1c-8.4,2-12.3,12.2-8.8,18.9H202.7
		c3.4-6.6,0-16.4-8.6-18.7V76h-11V59.3c-7.6,2.2-11.3,12.4-7.8,18.7H0.4v9.1h11.6c0,0,0,0,0,0c13.6,0,510.9,0,539.8,0V78z"/>
	<path class="st2" d="M377,59.4V0h-11v59C369.4,57.8,373.7,58,377,59.4z"/>
	<path class="st2" d="M377,76V59.4c-3.3-1.5-7.6-1.6-11-0.4v17H377z"/>
	<path class="st2" d="M194.1,59.2V0h-11v59.1C186.5,57.8,190.8,57.9,194.1,59.2z"/>
	<path class="st2" d="M194.1,76V59.2c-3.3-1.3-7.6-1.4-11-0.1V76H194.1z"/>
	<path class="st2" d="M48.9,360.7c151.8,0,303.6,0,455.4,0c12.7-91.2,25.5-182.3,38.2-273.5c-176.8,0-354-0.1-530.8-0.1
		C24,178.3,36.4,269.5,48.9,360.7z M47.2,168.9c-0.6-5-1-9.7-1.4-14.3c32.5-0.4,64.9-0.8,97.4-1.1v42c-30.7,0-61.4,0-92.1,0
		C49.7,187.7,48.3,178.8,47.2,168.9z M203.1,332.3c-39.3,0-78.6,0-117.9,0c-2.8-11.5-5.6-27.9-6.8-40.9c41.6-0.4,83.2-0.8,124.8-1.1
		V332.3z M203.1,263.4c-44.9,0-89.8,0-134.7,0c-3.2-11.5-6.4-27.9-7.8-40.9c47.5-0.4,95-0.8,142.5-1.1V263.4z M163.6,180.4l10.5-1
		c-0.6,3.8,3.9,5.2,6.2,3.1c1.7-1.6,0.5-16.1,0.9-18.3h11c-0.3,4.1,0.8,16.4-1.1,19.8C185.9,191.7,164.8,191.8,163.6,180.4z
		 M229.1,173.3v5.1h-18v5.1h20v5.1h-31v-24.3h31v5.1h-20v4.1H229.1z M349,332.3H216.1v-41.5H349V332.3z M349,263.4H216.1v-41.5H349
		V263.4z M237.1,188.5v-24.3h10.8l14.2,13.5v-13.5h11v24.3h-10.8l-14.2-13.4v13.4H237.1z M299.5,179.8c-3.2-1.4-14.5-2.5-16.5-4.4
		c-6.2-3.4-2.4-9.8,3.4-11c7-1.4,22.3-2.9,24.2,6.4l-10.7,0.4c-0.6-3.7-8.4-4.5-9.6-1.2c2.2,3.1,13.5,2.6,15.3,4.1
		c9.1,2.2,7,12.2-1.3,13.7c-8.4,1.8-24.5,2.6-26-7.5l10.8-0.5C288.9,185.7,304.8,185.2,299.5,179.8z M347,173.3v5.1h-18v5.1h20v5.1
		h-32v-24.3h31v5.1h-19v4.1H347z M486.9,305.7c-1.5,9.9-3.2,18.8-5.1,26.6c-39.3,0-78.6,0-117.9,0v-42c41.6,0.4,83.2,0.8,124.8,1.1
		C488.3,296,487.7,300.8,486.9,305.7z M502.4,236.8c-1.7,9.9-3.7,18.8-5.8,26.6c-44.9,0-89.8,0-134.7,0v-42
		c47.5,0.4,95,0.8,142.5,1.1C503.9,227.1,503.2,231.9,502.4,236.8z M510.9,168.9c-1.1,9.9-2.5,18.8-4,26.6c-30.7,0-61.4,0-92.1,0
		v-42c32.5,0.4,64.9,0.8,97.4,1.1C512,159.2,511.5,164,510.9,168.9z M359,94.6c57,0.4,114,0.8,171.1,1.1
		c-1.7,13.2-5.6,29.5-9.4,41.1c-53.9,0-107.8,0-161.7,0V94.6z M355,164.1h9.8l14.2,13.5v-13.5h11v24.3h-9.8L366,175.1v13.4h-11
		V164.1z M216.1,95.2H349v41.5H216.1V95.2z M204.1,94.8v42c-53.9,0-107.8,0-161.7,0c-3.8-11.5-7.6-27.8-9.4-40.9
		C90.1,95.5,147.1,95.1,204.1,94.8z"/>
	<path class="st2" d="M11.6,87.1h48.7C44,87.1,27.8,87.1,11.6,87.1C11.6,87.1,11.6,87.1,11.6,87.1z"/>
	<path class="st3" d="M178.4,189.1c17.2,0.6,13.4-13,13.7-25h-11c-0.4,2.4,0.9,16.7-0.9,18.3c-2.3,2.1-6.8,0.7-6.2-3.1l-10.5,1
		C164.6,187.9,171.2,189.1,178.4,189.1z"/>
	<polygon class="st3" points="231.1,169.2 231.1,164.1 200.1,164.1 200.1,188.5 231.1,188.5 231.1,183.4 211.1,183.4 211.1,178.3 
		229.1,178.3 229.1,173.3 212.1,173.3 212.1,169.2 	"/>
	<polygon class="st3" points="262.2,188.5 273.1,188.5 273.1,164.1 262.1,164.1 262.1,177.6 247.9,164.1 237.1,164.1 237.1,188.5 
		248.1,188.5 248.1,175.1 	"/>
	<path class="st3" d="M299.5,183.3c-3.2,1.6-9.6,1-10.2-3.4l-10.8,0.5c1.9,7.7,7.8,8.3,17.1,8.5c10.2,1.8,24.9-9,10.1-14.8
		c-1.9-1.6-13.1-1-15.3-4.1c1.2-3.3,9-2.4,9.6,1.2l10.7-0.4c-1.9-9.3-17.2-7.7-24.2-6.4c-13.7,4.9-3.8,13.5,7.3,14
		C297.9,178.9,303.3,180.1,299.5,183.3z"/>
	<polygon class="st3" points="348,169.2 348,164.1 317,164.1 317,188.5 349,188.5 349,183.4 329,183.4 329,178.3 347,178.3 
		347,173.3 329,173.3 329,169.2 	"/>
	<polygon class="st3" points="366,175.1 380.1,188.5 389.9,188.5 389.9,164.1 378.9,164.1 378.9,177.6 364.7,164.1 355,164.1 
		355,188.5 366,188.5 	"/>
</g>
</svg>
