<svg enable-background="new 0 0 551.8 361" viewBox="0 0 551.8 361" xmlns="http://www.w3.org/2000/svg"><g fill="none"><path d="m216.1 290.8h132.9v41.5h-132.9z"/><path d="m216.1 221.9h132.9v41.5h-132.9z"/><path d="m364 332.3h117.9c2.8-11.5 5.6-27.9 6.8-40.9-41.6-.4-83.2-.8-124.8-1.1v42z"/><path d="m362 263.4h134.7c3.2-11.5 6.4-27.9 7.8-40.9-47.5-.4-95-.8-142.5-1.1z"/><path d="m80.2 305.7c1.5 9.9 3.2 18.8 5.1 26.6h117.9v-42c-41.6.4-83.2.8-124.8 1.1.4 4.6 1 9.4 1.8 14.3z"/><path d="m143.2 153.5c-32.5.4-64.9.8-97.4 1.1 1 12.9 3.2 29.3 5.3 40.9h92.1z"/><path d="m62.7 236.8c1.7 9.9 3.7 18.8 5.8 26.6h134.7v-42c-47.5.4-95 .8-142.5 1.1.5 4.6 1.2 9.4 2 14.3z"/><path d="m527.6 110c1-5 1.8-9.8 2.4-14.3-57-.4-114-.7-171-1.1v42.2h161.7c2.5-7.9 4.9-16.8 6.9-26.8z"/><path d="m414.9 195.5h92.1c2.2-11.6 4.4-28 5.3-40.9-32.5-.4-64.9-.8-97.4-1.1z"/><path d="m35.5 110.2c2 9.9 4.4 18.8 6.9 26.6h161.7v-42c-57 .4-114 .8-171.1 1.1.7 4.5 1.5 9.3 2.5 14.3z"/><path d="m216.1 95.2h132.9v41.5h-132.9z"/></g><path d="m551.8 78h-167.3c3.3-6.2.1-16-7.6-18.5v16.5h-11v-16.9c-8.4 2-12.3 12.2-8.8 18.9h-154.4c3.4-6.6 0-16.4-8.6-18.7v16.7h-11v-16.7c-7.6 2.2-11.3 12.4-7.8 18.7h-174.9v9.1h11.6 539.8z" fill="#0b075e"/><path d="m377 59.4v-59.4h-11v59c3.4-1.2 7.7-1 11 .4z" fill="#080332"/><path d="m377 76v-16.6c-3.3-1.5-7.6-1.6-11-.4v17z" fill="#080332"/><path d="m194.1 59.2v-59.2h-11v59.1c3.4-1.3 7.7-1.2 11 .1z" fill="#080332"/><path d="m194.1 76v-16.8c-3.3-1.3-7.6-1.4-11-.1v16.9z" fill="#080332"/><path d="m48.9 360.7h455.4c12.7-91.2 25.5-182.3 38.2-273.5-176.8 0-354-.1-530.8-.1 12.3 91.2 24.7 182.4 37.2 273.6zm-1.7-191.8c-.6-5-1-9.7-1.4-14.3 32.5-.4 64.9-.8 97.4-1.1v42c-30.7 0-61.4 0-92.1 0-1.4-7.8-2.8-16.7-3.9-26.6zm155.9 163.4c-39.3 0-78.6 0-117.9 0-2.8-11.5-5.6-27.9-6.8-40.9 41.6-.4 83.2-.8 124.8-1.1v42zm0-68.9c-44.9 0-89.8 0-134.7 0-3.2-11.5-6.4-27.9-7.8-40.9 47.5-.4 95-.8 142.5-1.1zm-39.5-83 10.5-1c-.6 3.8 3.9 5.2 6.2 3.1 1.7-1.6.5-16.1.9-18.3h11c-.3 4.1.8 16.4-1.1 19.8-5.2 7.7-26.3 7.8-27.5-3.6zm65.5-7.1v5.1h-18v5.1h20v5.1h-31v-24.3h31v5.1h-20v4.1h18zm119.9 159h-132.9v-41.5h132.9zm0-68.9h-132.9v-41.5h132.9zm-111.9-74.9v-24.3h10.8l14.2 13.5v-13.5h11v24.3h-10.8l-14.2-13.4v13.4zm62.4-8.7c-3.2-1.4-14.5-2.5-16.5-4.4-6.2-3.4-2.4-9.8 3.4-11 7-1.4 22.3-2.9 24.2 6.4l-10.7.4c-.6-3.7-8.4-4.5-9.6-1.2 2.2 3.1 13.5 2.6 15.3 4.1 9.1 2.2 7 12.2-1.3 13.7-8.4 1.8-24.5 2.6-26-7.5l10.8-.5c-.2 5.9 15.7 5.4 10.4 0zm47.5-6.5v5.1h-18v5.1h20v5.1h-32v-24.3h31v5.1h-19v4.1h18zm139.9 132.4c-1.5 9.9-3.2 18.8-5.1 26.6-39.3 0-78.6 0-117.9 0v-42c41.6.4 83.2.8 124.8 1.1-.4 4.6-1 9.4-1.8 14.3zm15.5-68.9c-1.7 9.9-3.7 18.8-5.8 26.6-44.9 0-89.8 0-134.7 0v-42c47.5.4 95 .8 142.5 1.1-.5 4.6-1.2 9.4-2 14.3zm8.5-67.9c-1.1 9.9-2.5 18.8-4 26.6-30.7 0-61.4 0-92.1 0v-42c32.5.4 64.9.8 97.4 1.1-.2 4.6-.7 9.4-1.3 14.3zm-151.9-74.3c57 .4 114 .8 171.1 1.1-1.7 13.2-5.6 29.5-9.4 41.1-53.9 0-107.8 0-161.7 0zm-4 69.5h9.8l14.2 13.5v-13.5h11v24.3h-9.8l-14.2-13.3v13.4h-11zm-138.9-68.9h132.9v41.5h-132.9zm-12-.4v42c-53.9 0-107.8 0-161.7 0-3.8-11.5-7.6-27.8-9.4-40.9 57.1-.4 114.1-.8 171.1-1.1z" fill="#080332"/><path d="m11.6 87.1h48.7c-16.3 0-32.5 0-48.7 0z" fill="#080332"/><path d="m178.4 189.1c17.2.6 13.4-13 13.7-25h-11c-.4 2.4.9 16.7-.9 18.3-2.3 2.1-6.8.7-6.2-3.1l-10.5 1c1.1 7.6 7.7 8.8 14.9 8.8z" fill="#fff"/><path d="m231.1 169.2v-5.1h-31v24.4h31v-5.1h-20v-5.1h18v-5h-17v-4.1z" fill="#fff"/><path d="m262.2 188.5h10.9v-24.4h-11v13.5l-14.2-13.5h-10.8v24.4h11v-13.4z" fill="#fff"/><path d="m299.5 183.3c-3.2 1.6-9.6 1-10.2-3.4l-10.8.5c1.9 7.7 7.8 8.3 17.1 8.5 10.2 1.8 24.9-9 10.1-14.8-1.9-1.6-13.1-1-15.3-4.1 1.2-3.3 9-2.4 9.6 1.2l10.7-.4c-1.9-9.3-17.2-7.7-24.2-6.4-13.7 4.9-3.8 13.5 7.3 14 4.1.5 9.5 1.7 5.7 4.9z" fill="#fff"/><path d="m348 169.2v-5.1h-31v24.4h32v-5.1h-20v-5.1h18v-5h-18v-4.1z" fill="#fff"/><path d="m366 175.1 14.1 13.4h9.8v-24.4h-11v13.5l-14.2-13.5h-9.7v24.4h11z" fill="#fff"/></svg>