<?xml version="1.0" encoding="utf-8"?>
<!-- Generator: Adobe Illustrator 26.0.1, SVG Export Plug-In . SVG Version: 6.00 Build 0)  -->
<svg version="1.1" id="Layer_1" xmlns="http://www.w3.org/2000/svg" xmlns:xlink="http://www.w3.org/1999/xlink" x="0px" y="0px"
	 viewBox="0 0 433.2 418.6" style="enable-background:new 0 0 433.2 418.6;" xml:space="preserve">
<style type="text/css">
	.st0{fill:#FFFFFF;}
	.st1{fill:none;stroke:#1D1D1B;stroke-width:16;stroke-miterlimit:10;}
</style>
<image style="display:none;overflow:visible;" width="500" height="500" xlink:href="../../../../Downloads/pngwing.com (21).png"  transform="matrix(1 0 0 1 19.339 144.2939)">
</image>
<g>
	<g>
		<path d="M178.6,25.3c2.1,1.2,2.8,3.9,1.6,5.9s-3.9,2.8-5.9,1.6c-2.1-1.2-2.8-3.9-1.6-5.9C173.9,24.8,176.6,24.1,178.6,25.3z
			 M170.5,39.4c5.7,3.3,13,1.3,16.3-4.4c3.3-5.7,1.3-13-4.4-16.3s-13-1.3-16.3,4.4c0.3,4.4,0.5,8.8,0.8,13.2
			C167.9,37.5,169.1,38.6,170.5,39.4z"/>
		<circle class="st0" cx="176.5" cy="29.1" r="4.3"/>
		<path d="M150.2,36.6c-0.3,0.3-0.5,0.6-0.7,0.8C149.8,37.2,150,36.9,150.2,36.6z"/>
		<path d="M143.1,25.4c2.1,1.2,2.8,3.9,1.6,5.9s-3.9,2.8-5.9,1.6c-2.1-1.2-2.8-3.9-1.6-5.9C138.3,24.9,141,24.2,143.1,25.4z
			 M134.9,39.5c4.8,2.8,10.8,1.8,14.6-2c0.2-5.3,0.5-10.6,0.7-15.9c0,0,0,0,0,0c-0.9-1.1-2-2.1-3.3-2.8c-5.7-3.3-13-1.3-16.3,4.4
			C127.2,28.9,129.2,36.2,134.9,39.5z"/>
		<circle class="st0" cx="140.9" cy="29.1" r="4.3"/>
		<path d="M149.5,37.5C149.5,37.5,149.5,37.5,149.5,37.5C149.5,37.5,149.5,37.4,149.5,37.5c0.2-0.2,0.4-0.5,0.7-0.8
			c1.3-1.3,4-3.6,8.1-3.8c4.9-0.2,8,2.9,8.6,3.4c0,0,0,0,0,0c-0.3-4.4-0.5-8.8-0.8-13.2c-1,0.6-4.1,2.3-8.3,1.9
			c-4.1-0.4-6.8-2.6-7.6-3.4c0,0,0,0,0,0C149.9,26.9,149.7,32.2,149.5,37.5z"/>
	</g>
	<g>
		<path d="M238.7,48.4c1.3,2,0.8,4.7-1.2,6c-2,1.3-4.7,0.8-6-1.2c-1.3-2-0.8-4.7,1.2-6C234.7,45.9,237.3,46.4,238.7,48.4z
			 M225.1,57.5c3.7,5.5,11.1,6.9,16.6,3.3s6.9-11.1,3.3-16.6s-11.1-6.9-16.6-3.3c-1.7,4.1-3.4,8.2-5.1,12.2
			C223.6,54.7,224.2,56.2,225.1,57.5z"/>
		<circle class="st0" cx="235.1" cy="50.9" r="4.3"/>
		<path d="M208.2,46.1c-0.4,0.2-0.8,0.3-0.9,0.4C207.5,46.4,207.9,46.2,208.2,46.1z"/>
		<path d="M206.7,32.8c1.3,2,0.8,4.7-1.2,6c-2,1.3-4.7,0.8-6-1.2s-0.8-4.7,1.2-6C202.7,30.3,205.4,30.9,206.7,32.8z M193.2,41.9
			c3.1,4.6,8.9,6.4,14,4.6c2.5-4.6,5.1-9.3,7.6-13.9c0,0,0,0,0,0c-0.3-1.4-0.9-2.7-1.7-4c-3.7-5.5-11.1-6.9-16.6-3.3
			S189.5,36.5,193.2,41.9z"/>
		<circle class="st0" cx="203.1" cy="35.3" r="4.3"/>
		<path d="M207.1,46.5C207.1,46.5,207.1,46.5,207.1,46.5C207.1,46.5,207.2,46.5,207.1,46.5c0.3-0.1,0.6-0.3,1-0.4
			c1.7-0.6,5.2-1.5,9,0.2c4.5,2,6,6.1,6.2,6.8c0,0,0,0,0,0c1.7-4.1,3.4-8.2,5.1-12.2c-1.1,0.1-4.7,0.3-8.3-2
			c-3.5-2.2-4.9-5.3-5.4-6.4c0,0,0,0,0,0C212.2,37.2,209.7,41.9,207.1,46.5z"/>
	</g>
	<g>
		<path d="M281.3,93.7c0.4,2.4-1.3,4.6-3.6,5c-2.4,0.4-4.6-1.3-5-3.6c-0.4-2.4,1.3-4.6,3.6-5C278.7,89.7,281,91.4,281.3,93.7z
			 M265.2,96.2c1,6.5,7.1,11,13.6,10c6.5-1,11-7.1,10-13.6c-1-6.5-7.1-11-13.6-10c-3.3,3-6.5,5.9-9.8,8.9
			C265,93,265,94.6,265.2,96.2z"/>
		<circle class="st0" cx="277" cy="94.4" r="4.3"/>
		<path d="M254.7,78.7c-0.5,0-0.8,0-1,0C254,78.6,254.3,78.7,254.7,78.7z"/>
		<path d="M259,66c0.4,2.4-1.3,4.6-3.6,5c-2.4,0.4-4.6-1.3-5-3.6c-0.4-2.4,1.3-4.6,3.6-5C256.4,62,258.6,63.7,259,66z M242.9,68.5
			c0.9,5.5,5.4,9.6,10.7,10.1c4.3-3.1,8.5-6.3,12.8-9.4c0,0,0,0,0,0c0.3-1.4,0.4-2.9,0.1-4.3c-1-6.5-7.1-11-13.6-10
			C246.3,55.9,241.9,62,242.9,68.5z"/>
		<circle class="st0" cx="254.7" cy="66.7" r="4.3"/>
		<path d="M253.6,78.6C253.6,78.6,253.6,78.6,253.6,78.6c0,0,0.1,0,0.1,0c0.2,0,0.5,0,1,0c1.8,0.2,5.4,0.9,8,4
			c3.2,3.7,2.8,8.1,2.7,8.8c0,0,0,0,0,0c3.3-3,6.5-5.9,9.8-8.9c-1.1-0.4-4.4-1.7-6.7-5.3c-2.2-3.5-2.2-6.9-2.2-8c0,0,0,0,0,0
			C262.1,72.4,257.8,75.5,253.6,78.6z"/>
	</g>
	<g>
		<path d="M300.7,153.5c-0.7,2.3-3.1,3.6-5.4,2.9s-3.6-3.1-2.9-5.4s3.1-3.6,5.4-2.9C300.1,148.8,301.4,151.2,300.7,153.5z
			 M285.1,148.8c-1.9,6.3,1.7,13,8,14.9c6.3,1.9,13-1.7,14.9-8s-1.7-13-8-14.9c-4.2,1.3-8.5,2.5-12.7,3.8
			C286.3,145.8,285.5,147.2,285.1,148.8z"/>
		<circle class="st0" cx="296.5" cy="152.3" r="4.3"/>
		<path d="M283.1,128.4c-0.4-0.2-0.7-0.4-0.9-0.5C282.5,128.1,282.8,128.3,283.1,128.4z"/>
		<path d="M292.5,118.9c-0.7,2.3-3.1,3.6-5.4,2.9c-2.3-0.7-3.6-3.1-2.9-5.4s3.1-3.6,5.4-2.9C291.9,114.2,293.2,116.6,292.5,118.9z
			 M276.9,114.2c-1.6,5.4,0.7,11,5.3,13.7c5.2-1,10.4-2,15.6-2.9c0,0,0,0,0,0c0.9-1.1,1.6-2.4,2-3.9c1.9-6.3-1.7-13-8-14.9
			C285.4,104.3,278.8,107.9,276.9,114.2z"/>
		<circle class="st0" cx="288.3" cy="117.7" r="4.3"/>
		<path d="M282.2,127.9C282.2,127.9,282.1,127.9,282.2,127.9C282.2,127.9,282.2,127.9,282.2,127.9c0.3,0.1,0.6,0.3,1,0.5
			c1.6,0.9,4.5,3.1,5.5,7.1c1.3,4.7-1,8.5-1.4,9.1c0,0,0,0,0,0c4.2-1.3,8.5-2.5,12.7-3.8c-0.8-0.8-3.2-3.4-3.7-7.7
			c-0.5-4.1,1-7.2,1.5-8.2c0,0,0,0,0,0C292.6,126,287.4,126.9,282.2,127.9z"/>
	</g>
	<g>
		<path d="M291.6,218.3c-1.6,1.7-4.4,1.8-6.1,0.2c-1.7-1.6-1.8-4.4-0.2-6.1c1.6-1.7,4.4-1.8,6.1-0.2
			C293.1,213.8,293.2,216.5,291.6,218.3z M279.7,207.1c-4.5,4.8-4.3,12.4,0.5,16.9c4.8,4.5,12.4,4.3,16.9-0.5s4.3-12.4-0.5-16.9
			c-4.4-0.7-8.7-1.5-13.1-2.2C282.1,205,280.8,205.9,279.7,207.1z"/>
		<circle class="st0" cx="288.4" cy="215.3" r="4.3"/>
		<path d="M287,188c-0.3-0.4-0.5-0.7-0.6-0.8C286.6,187.5,286.8,187.7,287,188z"/>
		<path d="M299.6,183.6c-1.6,1.7-4.4,1.8-6.1,0.2c-1.7-1.6-1.8-4.4-0.2-6.1c1.6-1.7,4.4-1.8,6.1-0.2
			C301.2,179.1,301.2,181.9,299.6,183.6z M287.7,172.4c-3.8,4.1-4.2,10.1-1.3,14.6c5.1,1.4,10.2,2.9,15.3,4.3c0,0,0,0,0,0
			c1.3-0.6,2.5-1.5,3.5-2.6c4.5-4.8,4.3-12.4-0.5-16.9C299.8,167.4,292.2,167.6,287.7,172.4z"/>
		<circle class="st0" cx="296.4" cy="180.6" r="4.3"/>
		<path d="M286.4,187.1C286.4,187.1,286.4,187.1,286.4,187.1C286.4,187.1,286.4,187.1,286.4,187.1c0.2,0.2,0.4,0.5,0.6,0.9
			c1,1.5,2.6,4.8,1.8,8.8c-1,4.8-4.7,7.2-5.3,7.6c0,0,0,0,0,0c4.4,0.7,8.7,1.5,13.1,2.2c-0.4-1.1-1.3-4.5,0.1-8.5
			c1.3-3.9,4.1-6,5-6.7c0,0,0,0,0,0C296.6,190,291.5,188.5,286.4,187.1z"/>
	</g>
	<g>
		<path d="M256.3,270.3c-2.2,0.9-4.8-0.2-5.6-2.5s0.2-4.8,2.5-5.6c2.2-0.9,4.8,0.2,5.6,2.5C259.7,266.9,258.6,269.5,256.3,270.3z
			 M250.4,255.1c-6.2,2.4-9.2,9.3-6.8,15.5s9.3,9.2,15.5,6.8s9.2-9.3,6.8-15.5c-3.6-2.5-7.2-5.1-10.8-7.6
			C253.6,254.3,252,254.5,250.4,255.1z"/>
		<circle class="st0" cx="254.8" cy="266.3" r="4.3"/>
		<path d="M265.3,241.1c-0.1-0.5-0.1-0.8-0.2-1C265.2,240.4,265.2,240.7,265.3,241.1z"/>
		<path d="M278.5,242.5c-2.2,0.9-4.8-0.2-5.6-2.5c-0.9-2.2,0.2-4.8,2.5-5.6s4.8,0.2,5.6,2.5C281.9,239.1,280.8,241.7,278.5,242.5z
			 M272.6,227.3c-5.2,2-8.2,7.3-7.5,12.6c4,3.5,8,7,11.9,10.5c0,0,0,0,0,0c1.4,0,2.9-0.3,4.3-0.8c6.2-2.4,9.2-9.3,6.8-15.5
			S278.8,224.9,272.6,227.3z"/>
		<circle class="st0" cx="277" cy="238.5" r="4.3"/>
		<path d="M265.1,240C265.1,240,265.1,239.9,265.1,240c0,0,0,0.1,0,0.1c0,0.2,0.1,0.5,0.2,1c0.2,1.8,0.3,5.4-2.2,8.7
			c-2.9,3.9-7.3,4.5-8,4.5c0,0,0,0,0,0c3.6,2.5,7.2,5.1,10.8,7.6c0.1-1.1,0.8-4.6,3.7-7.7c2.9-2.9,6.2-3.7,7.4-3.8c0,0,0,0,0,0
			C273.1,246.9,269.1,243.4,265.1,240z"/>
	</g>
	<g>
		<path d="M202.8,302.1c-2.4-0.2-4.2-2.2-4-4.6c0.2-2.4,2.2-4.2,4.6-4s4.2,2.2,4,4.6C207.3,300.4,205.2,302.2,202.8,302.1z
			 M203.9,285.8c-6.6-0.4-12.3,4.5-12.7,11.1s4.5,12.3,11.1,12.7s12.3-4.5,12.7-11.1c-2.2-3.8-4.4-7.7-6.6-11.5
			C207.1,286.4,205.6,285.9,203.9,285.8z"/>
		<circle class="st0" cx="203.1" cy="297.7" r="4.3"/>
		<path d="M223.4,279.4c0.1-0.4,0.2-0.8,0.3-1C223.5,278.7,223.5,279,223.4,279.4z"/>
		<path d="M234.7,286.3c-2.4-0.2-4.2-2.2-4-4.6c0.2-2.4,2.2-4.2,4.6-4s4.2,2.2,4,4.6C239.2,284.7,237.1,286.5,234.7,286.3z
			 M235.9,270.1c-5.6-0.4-10.5,3.1-12.2,8.2c2.1,4.9,4.2,9.7,6.4,14.6c0,0,0,0,0,0c1.3,0.6,2.7,1,4.2,1.1
			c6.6,0.4,12.3-4.5,12.7-11.1C247.4,276.2,242.4,270.5,235.9,270.1z"/>
		<circle class="st0" cx="235" cy="282" r="4.3"/>
		<path d="M223.7,278.3C223.7,278.3,223.7,278.3,223.7,278.3C223.7,278.3,223.7,278.3,223.7,278.3c-0.1,0.3-0.2,0.6-0.3,1.1
			c-0.6,1.7-2,5-5.7,7c-4.3,2.3-8.5,0.9-9.2,0.7c0,0,0,0,0,0c2.2,3.8,4.4,7.7,6.6,11.5c0.6-1,2.6-3.9,6.6-5.4
			c3.9-1.4,7.2-0.7,8.3-0.3c0,0,0,0,0,0C227.9,288,225.8,283.1,223.7,278.3z"/>
	</g>
	<g>
		<path d="M138.7,307.6c-2.1-1.2-2.8-3.9-1.6-5.9c1.2-2.1,3.9-2.8,5.9-1.6c2.1,1.2,2.8,3.9,1.6,5.9S140.8,308.8,138.7,307.6z
			 M146.9,293.5c-5.7-3.3-13-1.3-16.3,4.4c-3.3,5.7-1.3,13,4.4,16.3c5.7,3.3,13,1.3,16.3-4.4c-0.3-4.4-0.5-8.8-0.8-13.2
			C149.5,295.4,148.3,294.3,146.9,293.5z"/>
		<circle class="st0" cx="140.9" cy="303.9" r="4.3"/>
		<path d="M167.2,296.3c0.3-0.3,0.5-0.6,0.7-0.8C167.6,295.8,167.4,296,167.2,296.3z"/>
		<path d="M174.3,307.5c-2.1-1.2-2.8-3.9-1.6-5.9c1.2-2.1,3.9-2.8,5.9-1.6c2.1,1.2,2.8,3.9,1.6,5.9S176.4,308.7,174.3,307.5z
			 M182.5,293.4c-4.8-2.8-10.8-1.8-14.6,2c-0.2,5.3-0.5,10.6-0.7,15.9c0,0,0,0,0,0c0.9,1.1,2,2.1,3.3,2.8c5.7,3.3,13,1.3,16.3-4.4
			C190.1,304,188.2,296.7,182.5,293.4z"/>
		<circle class="st0" cx="176.5" cy="303.8" r="4.3"/>
		<path d="M167.9,295.5C167.9,295.5,167.9,295.4,167.9,295.5C167.9,295.5,167.8,295.5,167.9,295.5c-0.2,0.2-0.4,0.5-0.7,0.8
			c-1.3,1.3-4,3.6-8.1,3.8c-4.9,0.2-8-2.9-8.6-3.4c0,0,0,0,0,0c0.3,4.4,0.5,8.8,0.8,13.2c1-0.6,4.1-2.3,8.3-1.9
			c4.1,0.4,6.8,2.6,7.6,3.4c0,0,0,0,0,0C167.4,306,167.7,300.7,167.9,295.5z"/>
	</g>
	<g>
		<path d="M78.7,284.5c-1.3-2-0.8-4.7,1.2-6s4.7-0.8,6,1.2c1.3,2,0.8,4.7-1.2,6C82.7,287,80,286.5,78.7,284.5z M92.2,275.4
			c-3.7-5.5-11.1-6.9-16.6-3.3c-5.5,3.7-6.9,11.1-3.3,16.6c3.7,5.5,11.1,6.9,16.6,3.3c1.7-4.1,3.4-8.2,5.1-12.2
			C93.7,278.3,93.1,276.8,92.2,275.4z"/>
		<circle class="st0" cx="82.3" cy="282.1" r="4.3"/>
		<path d="M109.2,286.8c0.4-0.2,0.8-0.3,0.9-0.4C109.8,286.6,109.5,286.7,109.2,286.8z"/>
		<path d="M110.7,300.1c-1.3-2-0.8-4.7,1.2-6c2-1.3,4.7-0.8,6,1.2c1.3,2,0.8,4.7-1.2,6S112,302.1,110.7,300.1z M124.2,291
			c-3.1-4.6-8.9-6.4-14-4.6c-2.5,4.6-5.1,9.3-7.6,13.9c0,0,0,0,0,0c0.3,1.4,0.9,2.7,1.7,4c3.7,5.5,11.1,6.9,16.6,3.3
			S127.9,296.5,124.2,291z"/>
		<circle class="st0" cx="114.3" cy="297.7" r="4.3"/>
		<path d="M110.2,286.4C110.2,286.4,110.2,286.4,110.2,286.4C110.2,286.4,110.2,286.4,110.2,286.4c-0.3,0.1-0.6,0.3-1,0.4
			c-1.7,0.6-5.2,1.5-9-0.2c-4.5-2-6-6.1-6.2-6.8c0,0,0,0,0,0c-1.7,4.1-3.4,8.2-5.1,12.2c1.1-0.1,4.7-0.3,8.3,2
			c3.5,2.2,4.9,5.3,5.4,6.4c0,0,0,0,0,0C105.1,295.7,107.7,291.1,110.2,286.4z"/>
	</g>
	<g>
		<path d="M36,239.2c-0.4-2.4,1.3-4.6,3.6-5c2.4-0.4,4.6,1.3,5,3.6s-1.3,4.6-3.6,5C38.6,243.2,36.4,241.6,36,239.2z M52.2,236.7
			c-1-6.5-7.1-11-13.6-10c-6.5,1-11,7.1-10,13.6c1,6.5,7.1,11,13.6,10c3.3-3,6.5-5.9,9.8-8.9C52.3,239.9,52.4,238.3,52.2,236.7z"/>
		<circle class="st0" cx="40.3" cy="238.5" r="4.3"/>
		<path d="M62.7,254.3c0.5,0,0.8,0,1,0C63.4,254.3,63,254.3,62.7,254.3z"/>
		<path d="M58.4,266.9c-0.4-2.4,1.3-4.6,3.6-5c2.4-0.4,4.6,1.3,5,3.6c0.4,2.4-1.3,4.6-3.6,5C61,270.9,58.7,269.3,58.4,266.9z
			 M74.5,264.4c-0.9-5.5-5.4-9.6-10.7-10.1c-4.3,3.1-8.5,6.3-12.8,9.4c0,0,0,0,0,0c-0.3,1.4-0.4,2.9-0.1,4.3c1,6.5,7.1,11,13.6,10
			C71,277,75.5,270.9,74.5,264.4z"/>
		<circle class="st0" cx="62.7" cy="266.2" r="4.3"/>
		<path d="M63.8,254.3C63.8,254.3,63.8,254.3,63.8,254.3c0,0-0.1,0-0.1,0c-0.2,0-0.5,0-1,0c-1.8-0.2-5.4-0.9-8-4
			c-3.2-3.7-2.8-8.1-2.7-8.8c0,0,0,0,0,0c-3.3,3-6.5,5.9-9.8,8.9c1.1,0.4,4.4,1.7,6.7,5.3c2.2,3.5,2.2,6.9,2.2,8c0,0,0,0,0,0
			C55.2,260.6,59.5,257.5,63.8,254.3z"/>
	</g>
	<g>
		<path d="M16.7,179.4c0.7-2.3,3.1-3.6,5.4-2.9s3.6,3.1,2.9,5.4s-3.1,3.6-5.4,2.9S16,181.7,16.7,179.4z M32.3,184.1
			c1.9-6.3-1.7-13-8-14.9s-13,1.7-14.9,8c-1.9,6.3,1.7,13,8,14.9c4.2-1.3,8.5-2.5,12.7-3.8C31,187.1,31.8,185.7,32.3,184.1z"/>
		<circle class="st0" cx="20.8" cy="180.7" r="4.3"/>
		<path d="M34.2,204.5c0.4,0.2,0.7,0.4,0.9,0.5C34.8,204.8,34.5,204.6,34.2,204.5z"/>
		<path d="M24.9,214c0.7-2.3,3.1-3.6,5.4-2.9c2.3,0.7,3.6,3.1,2.9,5.4s-3.1,3.6-5.4,2.9C25.5,218.7,24.2,216.3,24.9,214z
			 M40.5,218.7c1.6-5.4-0.7-11-5.3-13.7c-5.2,1-10.4,2-15.6,2.9c0,0,0,0,0,0c-0.9,1.1-1.6,2.4-2,3.9c-1.9,6.3,1.7,13,8,14.9
			S38.6,225.1,40.5,218.7z"/>
		<circle class="st0" cx="29" cy="215.3" r="4.3"/>
		<path d="M35.2,205C35.2,205,35.2,205,35.2,205C35.2,205,35.2,205,35.2,205c-0.3-0.1-0.6-0.3-1-0.5c-1.6-0.9-4.5-3.1-5.5-7.1
			c-1.3-4.7,1-8.5,1.4-9.1c0,0,0,0,0,0c-4.2,1.3-8.5,2.5-12.7,3.8c0.8,0.8,3.2,3.4,3.7,7.7c0.5,4.1-1,7.2-1.5,8.2c0,0,0,0,0,0
			C24.8,207,30,206,35.2,205z"/>
	</g>
	<g>
		<path d="M25.8,114.7c1.6-1.7,4.4-1.8,6.1-0.2c1.7,1.6,1.8,4.4,0.2,6.1c-1.6,1.7-4.4,1.8-6.1,0.2C24.2,119.2,24.2,116.4,25.8,114.7
			z M37.7,125.8c4.5-4.8,4.3-12.4-0.5-16.9s-12.4-4.3-16.9,0.5s-4.3,12.4,0.5,16.9c4.4,0.7,8.7,1.5,13.1,2.2
			C35.2,128,36.6,127,37.7,125.8z"/>
		<circle class="st0" cx="29" cy="117.6" r="4.3"/>
		<path d="M30.3,144.9c0.3,0.4,0.5,0.7,0.6,0.8C30.8,145.5,30.6,145.2,30.3,144.9z"/>
		<path d="M17.8,149.3c1.6-1.7,4.4-1.8,6.1-0.2c1.7,1.6,1.8,4.4,0.2,6.1c-1.6,1.7-4.4,1.8-6.1,0.2C16.2,153.8,16.1,151.1,17.8,149.3
			z M29.6,160.5c3.8-4.1,4.2-10.1,1.3-14.6c-5.1-1.4-10.2-2.9-15.3-4.3c0,0,0,0,0,0c-1.3,0.6-2.5,1.5-3.5,2.6
			c-4.5,4.8-4.3,12.4,0.5,16.9S25.1,165.3,29.6,160.5z"/>
		<circle class="st0" cx="20.9" cy="152.3" r="4.3"/>
		<path d="M31,145.9C31,145.9,31,145.9,31,145.9C31,145.8,31,145.8,31,145.9c-0.2-0.2-0.4-0.5-0.6-0.9c-1-1.5-2.6-4.8-1.8-8.8
			c1-4.8,4.7-7.2,5.3-7.6c0,0,0,0,0,0c-4.4-0.7-8.7-1.5-13.1-2.2c0.4,1.1,1.3,4.5-0.1,8.5c-1.3,3.9-4.1,6-5,6.7c0,0,0,0,0,0
			C20.8,143,25.9,144.4,31,145.9z"/>
	</g>
	<g>
		<path d="M61,62.6c2.2-0.9,4.8,0.2,5.6,2.5c0.9,2.2-0.2,4.8-2.5,5.6c-2.2,0.9-4.8-0.2-5.6-2.5C57.7,66,58.8,63.5,61,62.6z
			 M66.9,77.8c6.2-2.4,9.2-9.3,6.8-15.5s-9.3-9.2-15.5-6.8S49,64.8,51.4,71c3.6,2.5,7.2,5.1,10.8,7.6C63.8,78.7,65.4,78.4,66.9,77.8
			z"/>
		<circle class="st0" cx="62.6" cy="66.7" r="4.3"/>
		<path d="M52.1,91.9c0.1,0.5,0.1,0.8,0.2,1C52.2,92.5,52.1,92.2,52.1,91.9z"/>
		<path d="M38.8,90.4c2.2-0.9,4.8,0.2,5.6,2.5c0.9,2.2-0.2,4.8-2.5,5.6c-2.2,0.9-4.8-0.2-5.6-2.5C35.5,93.8,36.6,91.3,38.8,90.4z
			 M44.7,105.6c5.2-2,8.2-7.3,7.5-12.6c-4-3.5-8-7-11.9-10.5c0,0,0,0,0,0c-1.4,0-2.9,0.3-4.3,0.8c-6.2,2.4-9.2,9.3-6.8,15.5
			C31.6,104.9,38.6,108,44.7,105.6z"/>
		<circle class="st0" cx="40.4" cy="94.5" r="4.3"/>
		<path d="M52.3,93C52.3,93,52.3,93,52.3,93c0,0,0-0.1,0-0.1c0-0.2-0.1-0.5-0.2-1c-0.2-1.8-0.3-5.4,2.2-8.7c2.9-3.9,7.3-4.5,8-4.5
			c0,0,0,0,0,0c-3.6-2.5-7.2-5.1-10.8-7.6c-0.1,1.1-0.8,4.6-3.7,7.7c-2.9,2.9-6.2,3.7-7.4,3.8c0,0,0,0,0,0
			C44.3,86,48.3,89.5,52.3,93z"/>
	</g>
	<g>
		<path d="M114.5,30.9c2.4,0.2,4.2,2.2,4,4.6s-2.2,4.2-4.6,4c-2.4-0.2-4.2-2.2-4-4.6C110.1,32.5,112.1,30.7,114.5,30.9z M113.4,47.1
			c6.6,0.4,12.3-4.5,12.7-11.1c0.4-6.6-4.5-12.3-11.1-12.7c-6.6-0.4-12.3,4.5-12.7,11.1c2.2,3.8,4.4,7.7,6.6,11.5
			C110.2,46.6,111.8,47,113.4,47.1z"/>
		<circle class="st0" cx="114.2" cy="35.2" r="4.3"/>
		<path d="M94,53.6c-0.1,0.4-0.2,0.8-0.3,1C93.8,54.2,93.9,53.9,94,53.6z"/>
		<path d="M82.6,46.6c2.4,0.2,4.2,2.2,4,4.6c-0.2,2.4-2.2,4.2-4.6,4c-2.4-0.2-4.2-2.2-4-4.6C78.1,48.3,80.2,46.4,82.6,46.6z
			 M81.5,62.9c5.6,0.4,10.5-3.1,12.2-8.2c-2.1-4.9-4.2-9.7-6.4-14.6c0,0,0,0,0,0c-1.3-0.6-2.7-1-4.2-1.1
			c-6.6-0.4-12.3,4.5-12.7,11.1S74.9,62.4,81.5,62.9z"/>
		<circle class="st0" cx="82.3" cy="50.9" r="4.3"/>
		<path d="M93.7,54.6C93.7,54.6,93.7,54.7,93.7,54.6C93.7,54.6,93.7,54.6,93.7,54.6c0.1-0.3,0.2-0.6,0.3-1.1c0.6-1.7,2-5,5.7-7
			c4.3-2.3,8.5-0.9,9.2-0.7c0,0,0,0,0,0c-2.2-3.8-4.4-7.7-6.6-11.5c-0.6,1-2.6,3.9-6.6,5.4c-3.9,1.4-7.2,0.7-8.3,0.3c0,0,0,0,0,0
			C89.5,44.9,91.6,49.8,93.7,54.6z"/>
	</g>
	<g>
		<path d="M178.6,25.3c2.1,1.2,2.8,3.9,1.6,5.9s-3.9,2.8-5.9,1.6c-2.1-1.2-2.8-3.9-1.6-5.9C173.9,24.8,176.6,24.1,178.6,25.3z
			 M170.5,39.4c5.7,3.3,13,1.3,16.3-4.4c3.3-5.7,1.3-13-4.4-16.3s-13-1.3-16.3,4.4c0.3,4.4,0.5,8.8,0.8,13.2
			C167.9,37.5,169.1,38.6,170.5,39.4z"/>
		<circle class="st0" cx="176.5" cy="29.1" r="4.3"/>
		<path d="M150.2,36.6c-0.3,0.3-0.5,0.6-0.7,0.8C149.8,37.2,150,36.9,150.2,36.6z"/>
		<path d="M143.1,25.4c2.1,1.2,2.8,3.9,1.6,5.9s-3.9,2.8-5.9,1.6c-2.1-1.2-2.8-3.9-1.6-5.9C138.3,24.9,141,24.2,143.1,25.4z
			 M134.9,39.5c4.8,2.8,10.8,1.8,14.6-2c0.2-5.3,0.5-10.6,0.7-15.9c0,0,0,0,0,0c-0.9-1.1-2-2.1-3.3-2.8c-5.7-3.3-13-1.3-16.3,4.4
			C127.2,28.9,129.2,36.2,134.9,39.5z"/>
		<circle class="st0" cx="140.9" cy="29.1" r="4.3"/>
		<path d="M149.5,37.5C149.5,37.5,149.5,37.5,149.5,37.5C149.5,37.5,149.5,37.4,149.5,37.5c0.2-0.2,0.4-0.5,0.7-0.8
			c1.3-1.3,4-3.6,8.1-3.8c4.9-0.2,8,2.9,8.6,3.4c0,0,0,0,0,0c-0.3-4.4-0.5-8.8-0.8-13.2c-1,0.6-4.1,2.3-8.3,1.9
			c-4.1-0.4-6.8-2.6-7.6-3.4c0,0,0,0,0,0C149.9,26.9,149.7,32.2,149.5,37.5z"/>
	</g>
</g>
<line class="st1" x1="264.1" y1="250.9" x2="418.9" y2="405.7"/>
</svg>
