<svg enable-background="new 0 0 433.2 418.6" viewBox="0 0 433.2 418.6" xmlns="http://www.w3.org/2000/svg"><path d="m178.6 25.3c2.1 1.2 2.8 3.9 1.6 5.9s-3.9 2.8-5.9 1.6c-2.1-1.2-2.8-3.9-1.6-5.9 1.2-2.1 3.9-2.8 5.9-1.6zm-8.1 14.1c5.7 3.3 13 1.3 16.3-4.4s1.3-13-4.4-16.3-13-1.3-16.3 4.4c.3 4.4.5 8.8.8 13.2 1 1.2 2.2 2.3 3.6 3.1z"/><circle cx="176.5" cy="29.1" fill="#fff" r="4.3"/><path d="m150.2 36.6c-.3.3-.5.6-.7.8.3-.2.5-.5.7-.8z"/><path d="m143.1 25.4c2.1 1.2 2.8 3.9 1.6 5.9s-3.9 2.8-5.9 1.6c-2.1-1.2-2.8-3.9-1.6-5.9 1.1-2.1 3.8-2.8 5.9-1.6zm-8.2 14.1c4.8 2.8 10.8 1.8 14.6-2 .2-5.3.5-10.6.7-15.9-.9-1.1-2-2.1-3.3-2.8-5.7-3.3-13-1.3-16.3 4.4-3.4 5.7-1.4 13 4.3 16.3z"/><circle cx="140.9" cy="29.1" fill="#fff" r="4.3"/><path d="m149.5 37.5c.2-.2.4-.5.7-.8 1.3-1.3 4-3.6 8.1-3.8 4.9-.2 8 2.9 8.6 3.4-.3-4.4-.5-8.8-.8-13.2-1 .6-4.1 2.3-8.3 1.9-4.1-.4-6.8-2.6-7.6-3.4-.3 5.3-.5 10.6-.7 15.9z"/><path d="m238.7 48.4c1.3 2 .8 4.7-1.2 6s-4.7.8-6-1.2-.8-4.7 1.2-6 4.6-.8 6 1.2zm-13.6 9.1c3.7 5.5 11.1 6.9 16.6 3.3s6.9-11.1 3.3-16.6-11.1-6.9-16.6-3.3c-1.7 4.1-3.4 8.2-5.1 12.2.3 1.6.9 3.1 1.8 4.4z"/><circle cx="235.1" cy="50.9" fill="#fff" r="4.3"/><path d="m208.2 46.1c-.4.2-.8.3-.9.4.2-.1.6-.3.9-.4z"/><path d="m206.7 32.8c1.3 2 .8 4.7-1.2 6s-4.7.8-6-1.2-.8-4.7 1.2-6 4.7-.7 6 1.2zm-13.5 9.1c3.1 4.6 8.9 6.4 14 4.6 2.5-4.6 5.1-9.3 7.6-13.9-.3-1.4-.9-2.7-1.7-4-3.7-5.5-11.1-6.9-16.6-3.3s-7 11.2-3.3 16.6z"/><circle cx="203.1" cy="35.3" fill="#fff" r="4.3"/><path d="m207.1 46.5s.1 0 0 0c.3-.1.6-.3 1-.4 1.7-.6 5.2-1.5 9 .2 4.5 2 6 6.1 6.2 6.8 1.7-4.1 3.4-8.2 5.1-12.2-1.1.1-4.7.3-8.3-2-3.5-2.2-4.9-5.3-5.4-6.4-2.5 4.7-5 9.4-7.6 14z"/><path d="m281.3 93.7c.4 2.4-1.3 4.6-3.6 5-2.4.4-4.6-1.3-5-3.6-.4-2.4 1.3-4.6 3.6-5 2.4-.4 4.7 1.3 5 3.6zm-16.1 2.5c1 6.5 7.1 11 13.6 10s11-7.1 10-13.6-7.1-11-13.6-10c-3.3 3-6.5 5.9-9.8 8.9-.4 1.5-.4 3.1-.2 4.7z"/><circle cx="277" cy="94.4" fill="#fff" r="4.3"/><path d="m254.7 78.7c-.5 0-.8 0-1 0 .3-.1.6 0 1 0z"/><path d="m259 66c.4 2.4-1.3 4.6-3.6 5-2.4.4-4.6-1.3-5-3.6-.4-2.4 1.3-4.6 3.6-5 2.4-.4 4.6 1.3 5 3.6zm-16.1 2.5c.9 5.5 5.4 9.6 10.7 10.1 4.3-3.1 8.5-6.3 12.8-9.4.3-1.4.4-2.9.1-4.3-1-6.5-7.1-11-13.6-10-6.6 1-11 7.1-10 13.6z"/><circle cx="254.7" cy="66.7" fill="#fff" r="4.3"/><path d="m253.6 78.6h.1 1c1.8.2 5.4.9 8 4 3.2 3.7 2.8 8.1 2.7 8.8 3.3-3 6.5-5.9 9.8-8.9-1.1-.4-4.4-1.7-6.7-5.3-2.2-3.5-2.2-6.9-2.2-8-4.2 3.2-8.5 6.3-12.7 9.4z"/><path d="m300.7 153.5c-.7 2.3-3.1 3.6-5.4 2.9s-3.6-3.1-2.9-5.4 3.1-3.6 5.4-2.9 3.6 3.1 2.9 5.4zm-15.6-4.7c-1.9 6.3 1.7 13 8 14.9s13-1.7 14.9-8-1.7-13-8-14.9c-4.2 1.3-8.5 2.5-12.7 3.8-1 1.2-1.8 2.6-2.2 4.2z"/><circle cx="296.5" cy="152.3" fill="#fff" r="4.3"/><path d="m283.1 128.4c-.4-.2-.7-.4-.9-.5.3.2.6.4.9.5z"/><path d="m292.5 118.9c-.7 2.3-3.1 3.6-5.4 2.9s-3.6-3.1-2.9-5.4 3.1-3.6 5.4-2.9 3.6 3.1 2.9 5.4zm-15.6-4.7c-1.6 5.4.7 11 5.3 13.7 5.2-1 10.4-2 15.6-2.9.9-1.1 1.6-2.4 2-3.9 1.9-6.3-1.7-13-8-14.9-6.4-1.9-13 1.7-14.9 8z"/><circle cx="288.3" cy="117.7" fill="#fff" r="4.3"/><path d="m282.2 127.9c.3.1.6.3 1 .5 1.6.9 4.5 3.1 5.5 7.1 1.3 4.7-1 8.5-1.4 9.1 4.2-1.3 8.5-2.5 12.7-3.8-.8-.8-3.2-3.4-3.7-7.7-.5-4.1 1-7.2 1.5-8.2-5.2 1.1-10.4 2-15.6 3z"/><path d="m291.6 218.3c-1.6 1.7-4.4 1.8-6.1.2s-1.8-4.4-.2-6.1 4.4-1.8 6.1-.2 1.8 4.3.2 6.1zm-11.9-11.2c-4.5 4.8-4.3 12.4.5 16.9s12.4 4.3 16.9-.5 4.3-12.4-.5-16.9c-4.4-.7-8.7-1.5-13.1-2.2-1.4.6-2.7 1.5-3.8 2.7z"/><circle cx="288.4" cy="215.3" fill="#fff" r="4.3"/><path d="m287 188c-.3-.4-.5-.7-.6-.8.2.3.4.5.6.8z"/><path d="m299.6 183.6c-1.6 1.7-4.4 1.8-6.1.2s-1.8-4.4-.2-6.1 4.4-1.8 6.1-.2c1.8 1.6 1.8 4.4.2 6.1zm-11.9-11.2c-3.8 4.1-4.2 10.1-1.3 14.6 5.1 1.4 10.2 2.9 15.3 4.3 1.3-.6 2.5-1.5 3.5-2.6 4.5-4.8 4.3-12.4-.5-16.9-4.9-4.4-12.5-4.2-17 .6z"/><circle cx="296.4" cy="180.6" fill="#fff" r="4.3"/><path d="m286.4 187.1c.2.2.4.5.6.9 1 1.5 2.6 4.8 1.8 8.8-1 4.8-4.7 7.2-5.3 7.6 4.4.7 8.7 1.5 13.1 2.2-.4-1.1-1.3-4.5.1-8.5 1.3-3.9 4.1-6 5-6.7-5.1-1.4-10.2-2.9-15.3-4.3z"/><path d="m256.3 270.3c-2.2.9-4.8-.2-5.6-2.5s.2-4.8 2.5-5.6c2.2-.9 4.8.2 5.6 2.5.9 2.2-.2 4.8-2.5 5.6zm-5.9-15.2c-6.2 2.4-9.2 9.3-6.8 15.5s9.3 9.2 15.5 6.8 9.2-9.3 6.8-15.5c-3.6-2.5-7.2-5.1-10.8-7.6-1.5 0-3.1.2-4.7.8z"/><circle cx="254.8" cy="266.3" fill="#fff" r="4.3"/><path d="m265.3 241.1c-.1-.5-.1-.8-.2-1 .1.3.1.6.2 1z"/><path d="m278.5 242.5c-2.2.9-4.8-.2-5.6-2.5-.9-2.2.2-4.8 2.5-5.6s4.8.2 5.6 2.5c.9 2.2-.2 4.8-2.5 5.6zm-5.9-15.2c-5.2 2-8.2 7.3-7.5 12.6 4 3.5 8 7 11.9 10.5 1.4 0 2.9-.3 4.3-.8 6.2-2.4 9.2-9.3 6.8-15.5s-9.3-9.2-15.5-6.8z"/><circle cx="277" cy="238.5" fill="#fff" r="4.3"/><path d="m265.1 240v.1c0 .2.1.5.2 1 .2 1.8.3 5.4-2.2 8.7-2.9 3.9-7.3 4.5-8 4.5 3.6 2.5 7.2 5.1 10.8 7.6.1-1.1.8-4.6 3.7-7.7 2.9-2.9 6.2-3.7 7.4-3.8-3.9-3.5-7.9-7-11.9-10.4z"/><path d="m202.8 302.1c-2.4-.2-4.2-2.2-4-4.6s2.2-4.2 4.6-4 4.2 2.2 4 4.6c-.1 2.3-2.2 4.1-4.6 4zm1.1-16.3c-6.6-.4-12.3 4.5-12.7 11.1s4.5 12.3 11.1 12.7 12.3-4.5 12.7-11.1c-2.2-3.8-4.4-7.7-6.6-11.5-1.3-.6-2.8-1.1-4.5-1.2z"/><circle cx="203.1" cy="297.7" fill="#fff" r="4.3"/><path d="m223.4 279.4c.1-.4.2-.8.3-1-.2.3-.2.6-.3 1z"/><path d="m234.7 286.3c-2.4-.2-4.2-2.2-4-4.6s2.2-4.2 4.6-4 4.2 2.2 4 4.6c-.1 2.4-2.2 4.2-4.6 4zm1.2-16.2c-5.6-.4-10.5 3.1-12.2 8.2 2.1 4.9 4.2 9.7 6.4 14.6 1.3.6 2.7 1 4.2 1.1 6.6.4 12.3-4.5 12.7-11.1.4-6.7-4.6-12.4-11.1-12.8z"/><circle cx="235" cy="282" fill="#fff" r="4.3"/><path d="m223.7 278.3c-.1.3-.2.6-.3 1.1-.6 1.7-2 5-5.7 7-4.3 2.3-8.5.9-9.2.7 2.2 3.8 4.4 7.7 6.6 11.5.6-1 2.6-3.9 6.6-5.4 3.9-1.4 7.2-.7 8.3-.3-2.1-4.9-4.2-9.8-6.3-14.6z"/><path d="m138.7 307.6c-2.1-1.2-2.8-3.9-1.6-5.9 1.2-2.1 3.9-2.8 5.9-1.6 2.1 1.2 2.8 3.9 1.6 5.9s-3.8 2.8-5.9 1.6zm8.2-14.1c-5.7-3.3-13-1.3-16.3 4.4s-1.3 13 4.4 16.3 13 1.3 16.3-4.4c-.3-4.4-.5-8.8-.8-13.2-1-1.2-2.2-2.3-3.6-3.1z"/><circle cx="140.9" cy="303.9" fill="#fff" r="4.3"/><path d="m167.2 296.3c.3-.3.5-.6.7-.8-.3.3-.5.5-.7.8z"/><path d="m174.3 307.5c-2.1-1.2-2.8-3.9-1.6-5.9 1.2-2.1 3.9-2.8 5.9-1.6 2.1 1.2 2.8 3.9 1.6 5.9s-3.8 2.8-5.9 1.6zm8.2-14.1c-4.8-2.8-10.8-1.8-14.6 2-.2 5.3-.5 10.6-.7 15.9.9 1.1 2 2.1 3.3 2.8 5.7 3.3 13 1.3 16.3-4.4s1.4-13-4.3-16.3z"/><circle cx="176.5" cy="303.8" fill="#fff" r="4.3"/><path d="m167.9 295.5c-.2.2-.4.5-.7.8-1.3 1.3-4 3.6-8.1 3.8-4.9.2-8-2.9-8.6-3.4.3 4.4.5 8.8.8 13.2 1-.6 4.1-2.3 8.3-1.9 4.1.4 6.8 2.6 7.6 3.4.2-5.4.5-10.7.7-15.9z"/><path d="m78.7 284.5c-1.3-2-.8-4.7 1.2-6s4.7-.8 6 1.2.8 4.7-1.2 6-4.7.8-6-1.2zm13.5-9.1c-3.7-5.5-11.1-6.9-16.6-3.3-5.5 3.7-6.9 11.1-3.3 16.6 3.7 5.5 11.1 6.9 16.6 3.3 1.7-4.1 3.4-8.2 5.1-12.2-.3-1.5-.9-3-1.8-4.4z"/><circle cx="82.3" cy="282.1" fill="#fff" r="4.3"/><path d="m109.2 286.8c.4-.2.8-.3.9-.4-.3.2-.6.3-.9.4z"/><path d="m110.7 300.1c-1.3-2-.8-4.7 1.2-6s4.7-.8 6 1.2.8 4.7-1.2 6-4.7.8-6-1.2zm13.5-9.1c-3.1-4.6-8.9-6.4-14-4.6-2.5 4.6-5.1 9.3-7.6 13.9.3 1.4.9 2.7 1.7 4 3.7 5.5 11.1 6.9 16.6 3.3s7-11.1 3.3-16.6z"/><circle cx="114.3" cy="297.7" fill="#fff" r="4.3"/><path d="m110.2 286.4c-.3.1-.6.3-1 .4-1.7.6-5.2 1.5-9-.2-4.5-2-6-6.1-6.2-6.8-1.7 4.1-3.4 8.2-5.1 12.2 1.1-.1 4.7-.3 8.3 2 3.5 2.2 4.9 5.3 5.4 6.4 2.5-4.7 5.1-9.3 7.6-14z"/><path d="m36 239.2c-.4-2.4 1.3-4.6 3.6-5 2.4-.4 4.6 1.3 5 3.6s-1.3 4.6-3.6 5c-2.4.4-4.6-1.2-5-3.6zm16.2-2.5c-1-6.5-7.1-11-13.6-10s-11 7.1-10 13.6 7.1 11 13.6 10c3.3-3 6.5-5.9 9.8-8.9.3-1.5.4-3.1.2-4.7z"/><circle cx="40.3" cy="238.5" fill="#fff" r="4.3"/><path d="m62.7 254.3h1c-.3 0-.7 0-1 0z"/><path d="m58.4 266.9c-.4-2.4 1.3-4.6 3.6-5 2.4-.4 4.6 1.3 5 3.6.4 2.4-1.3 4.6-3.6 5-2.4.4-4.7-1.2-5-3.6zm16.1-2.5c-.9-5.5-5.4-9.6-10.7-10.1-4.3 3.1-8.5 6.3-12.8 9.4-.3 1.4-.4 2.9-.1 4.3 1 6.5 7.1 11 13.6 10s11-7.1 10-13.6z"/><circle cx="62.7" cy="266.2" fill="#fff" r="4.3"/><path d="m63.8 254.3h-.1c-.2 0-.5 0-1 0-1.8-.2-5.4-.9-8-4-3.2-3.7-2.8-8.1-2.7-8.8-3.3 3-6.5 5.9-9.8 8.9 1.1.4 4.4 1.7 6.7 5.3 2.2 3.5 2.2 6.9 2.2 8 4.1-3.1 8.4-6.2 12.7-9.4z"/><path d="m16.7 179.4c.7-2.3 3.1-3.6 5.4-2.9s3.6 3.1 2.9 5.4-3.1 3.6-5.4 2.9-3.6-3.1-2.9-5.4zm15.6 4.7c1.9-6.3-1.7-13-8-14.9s-13 1.7-14.9 8 1.7 13 8 14.9c4.2-1.3 8.5-2.5 12.7-3.8.9-1.2 1.7-2.6 2.2-4.2z"/><circle cx="20.8" cy="180.7" fill="#fff" r="4.3"/><path d="m34.2 204.5c.4.2.7.4.9.5-.3-.2-.6-.4-.9-.5z"/><path d="m24.9 214c.7-2.3 3.1-3.6 5.4-2.9s3.6 3.1 2.9 5.4-3.1 3.6-5.4 2.9-3.6-3.1-2.9-5.4zm15.6 4.7c1.6-5.4-.7-11-5.3-13.7-5.2 1-10.4 2-15.6 2.9-.9 1.1-1.6 2.4-2 3.9-1.9 6.3 1.7 13 8 14.9s13-1.6 14.9-8z"/><circle cx="29" cy="215.3" fill="#fff" r="4.3"/><path d="m35.2 205c-.3-.1-.6-.3-1-.5-1.6-.9-4.5-3.1-5.5-7.1-1.3-4.7 1-8.5 1.4-9.1-4.2 1.3-8.5 2.5-12.7 3.8.8.8 3.2 3.4 3.7 7.7.5 4.1-1 7.2-1.5 8.2z"/><path d="m25.8 114.7c1.6-1.7 4.4-1.8 6.1-.2s1.8 4.4.2 6.1-4.4 1.8-6.1.2c-1.8-1.6-1.8-4.4-.2-6.1zm11.9 11.1c4.5-4.8 4.3-12.4-.5-16.9s-12.4-4.3-16.9.5-4.3 12.4.5 16.9c4.4.7 8.7 1.5 13.1 2.2 1.3-.5 2.7-1.5 3.8-2.7z"/><circle cx="29" cy="117.6" fill="#fff" r="4.3"/><path d="m30.3 144.9c.3.4.5.7.6.8-.1-.2-.3-.5-.6-.8z"/><path d="m17.8 149.3c1.6-1.7 4.4-1.8 6.1-.2s1.8 4.4.2 6.1-4.4 1.8-6.1.2c-1.8-1.6-1.9-4.3-.2-6.1zm11.8 11.2c3.8-4.1 4.2-10.1 1.3-14.6-5.1-1.4-10.2-2.9-15.3-4.3-1.3.6-2.5 1.5-3.5 2.6-4.5 4.8-4.3 12.4.5 16.9s12.5 4.2 17-.6z"/><circle cx="20.9" cy="152.3" fill="#fff" r="4.3"/><path d="m31 145.9c0-.1 0-.1 0 0-.2-.2-.4-.5-.6-.9-1-1.5-2.6-4.8-1.8-8.8 1-4.8 4.7-7.2 5.3-7.6-4.4-.7-8.7-1.5-13.1-2.2.4 1.1 1.3 4.5-.1 8.5-1.3 3.9-4.1 6-5 6.7 5.1 1.4 10.2 2.8 15.3 4.3z"/><path d="m61 62.6c2.2-.9 4.8.2 5.6 2.5.9 2.2-.2 4.8-2.5 5.6-2.2.9-4.8-.2-5.6-2.5-.8-2.2.3-4.7 2.5-5.6zm5.9 15.2c6.2-2.4 9.2-9.3 6.8-15.5s-9.3-9.2-15.5-6.8-9.2 9.3-6.8 15.5c3.6 2.5 7.2 5.1 10.8 7.6 1.6.1 3.2-.2 4.7-.8z"/><circle cx="62.6" cy="66.7" fill="#fff" r="4.3"/><path d="m52.1 91.9c.1.5.1.8.2 1-.1-.4-.2-.7-.2-1z"/><path d="m38.8 90.4c2.2-.9 4.8.2 5.6 2.5.9 2.2-.2 4.8-2.5 5.6-2.2.9-4.8-.2-5.6-2.5-.8-2.2.3-4.7 2.5-5.6zm5.9 15.2c5.2-2 8.2-7.3 7.5-12.6-4-3.5-8-7-11.9-10.5-1.4 0-2.9.3-4.3.8-6.2 2.4-9.2 9.3-6.8 15.5 2.4 6.1 9.4 9.2 15.5 6.8z"/><circle cx="40.4" cy="94.5" fill="#fff" r="4.3"/><path d="m52.3 93v-.1c0-.2-.1-.5-.2-1-.2-1.8-.3-5.4 2.2-8.7 2.9-3.9 7.3-4.5 8-4.5-3.6-2.5-7.2-5.1-10.8-7.6-.1 1.1-.8 4.6-3.7 7.7-2.9 2.9-6.2 3.7-7.4 3.8 3.9 3.4 7.9 6.9 11.9 10.4z"/><path d="m114.5 30.9c2.4.2 4.2 2.2 4 4.6s-2.2 4.2-4.6 4-4.2-2.2-4-4.6 2.2-4.2 4.6-4zm-1.1 16.2c6.6.4 12.3-4.5 12.7-11.1s-4.5-12.3-11.1-12.7-12.3 4.5-12.7 11.1c2.2 3.8 4.4 7.7 6.6 11.5 1.3.7 2.9 1.1 4.5 1.2z"/><circle cx="114.2" cy="35.2" fill="#fff" r="4.3"/><path d="m94 53.6c-.1.4-.2.8-.3 1 .1-.4.2-.7.3-1z"/><path d="m82.6 46.6c2.4.2 4.2 2.2 4 4.6s-2.2 4.2-4.6 4-4.2-2.2-4-4.6c.1-2.3 2.2-4.2 4.6-4zm-1.1 16.3c5.6.4 10.5-3.1 12.2-8.2-2.1-4.9-4.2-9.7-6.4-14.6-1.3-.6-2.7-1-4.2-1.1-6.6-.4-12.3 4.5-12.7 11.1s4.5 12.3 11.1 12.8z"/><circle cx="82.3" cy="50.9" fill="#fff" r="4.3"/><path d="m93.7 54.6s0 .1 0 0c.1-.3.2-.6.3-1.1.6-1.7 2-5 5.7-7 4.3-2.3 8.5-.9 9.2-.7-2.2-3.8-4.4-7.7-6.6-11.5-.6 1-2.6 3.9-6.6 5.4-3.9 1.4-7.2.7-8.3.3 2.1 4.9 4.2 9.8 6.3 14.6z"/><path d="m178.6 25.3c2.1 1.2 2.8 3.9 1.6 5.9s-3.9 2.8-5.9 1.6c-2.1-1.2-2.8-3.9-1.6-5.9 1.2-2.1 3.9-2.8 5.9-1.6zm-8.1 14.1c5.7 3.3 13 1.3 16.3-4.4s1.3-13-4.4-16.3-13-1.3-16.3 4.4c.3 4.4.5 8.8.8 13.2 1 1.2 2.2 2.3 3.6 3.1z"/><circle cx="176.5" cy="29.1" fill="#fff" r="4.3"/><path d="m150.2 36.6c-.3.3-.5.6-.7.8.3-.2.5-.5.7-.8z"/><path d="m143.1 25.4c2.1 1.2 2.8 3.9 1.6 5.9s-3.9 2.8-5.9 1.6c-2.1-1.2-2.8-3.9-1.6-5.9 1.1-2.1 3.8-2.8 5.9-1.6zm-8.2 14.1c4.8 2.8 10.8 1.8 14.6-2 .2-5.3.5-10.6.7-15.9-.9-1.1-2-2.1-3.3-2.8-5.7-3.3-13-1.3-16.3 4.4-3.4 5.7-1.4 13 4.3 16.3z"/><circle cx="140.9" cy="29.1" fill="#fff" r="4.3"/><path d="m149.5 37.5c.2-.2.4-.5.7-.8 1.3-1.3 4-3.6 8.1-3.8 4.9-.2 8 2.9 8.6 3.4-.3-4.4-.5-8.8-.8-13.2-1 .6-4.1 2.3-8.3 1.9-4.1-.4-6.8-2.6-7.6-3.4-.3 5.3-.5 10.6-.7 15.9z"/><path d="m264.1 250.9 154.8 154.8" fill="none" stroke="#1d1d1b" stroke-miterlimit="10" stroke-width="16"/></svg>